HIERARCHY
ROOT Hips
{
    OFFSET 0.000000 0.000000 0.000000
    CHANNELS 6 Xposition Yposition Zposition Zrotation Xrotation Yrotation
    JOINT Spine
    {
        OFFSET -0.000000 14.517291 0.000000
        CHANNELS 3 Zrotation Xrotation Yrotation
        JOINT Spine1
        {
            OFFSET -0.000000 37.558300 0.000000
            CHANNELS 3 Zrotation Xrotation Yrotation
            JOINT Neck
            {
                OFFSET -0.000000 37.404057 3.400369
                CHANNELS 3 Zrotation Xrotation Yrotation
                JOINT Head
                {
                    OFFSET -0.000000 24.785618 -3.540803
                    CHANNELS 3 Zrotation Xrotation Yrotation
                    End Site
                    {
                        OFFSET -0.000000 35.408028 0.000000
                    }
                }
            }
            JOINT LeftShoulder
            {
                OFFSET 6.992933 33.973492 -0.192664
                CHANNELS 3 Zrotation Xrotation Yrotation
                JOINT LeftArm
                {
                    OFFSET 21.527611 0.000000 0.000000
                    CHANNELS 3 Zrotation Xrotation Yrotation
                    JOINT LeftForeArm
                    {
                        OFFSET 56.353916 0.000000 0.000000
                        CHANNELS 3 Zrotation Xrotation Yrotation
                        JOINT LeftHand
                        {
                            OFFSET 47.774071 0.000000 0.000000
                            CHANNELS 3 Zrotation Xrotation Yrotation
                            End Site
                            {
                                OFFSET 26.556021 0.000000 0.000000
                            }
                        }
                    }
                }
            }
            JOINT RightShoulder
            {
                OFFSET -7.065357 33.973492 -0.192664
                CHANNELS 3 Zrotation Xrotation Yrotation
                JOINT RightArm
                {
                    OFFSET -21.527611 0.000000 0.000000
                    CHANNELS 3 Zrotation Xrotation Yrotation
                    JOINT RightForeArm
                    {
                        OFFSET -56.353916 0.000000 0.000000
                        CHANNELS 3 Zrotation Xrotation Yrotation
                        JOINT RightHand
                        {
                            OFFSET -47.774071 0.000000 0.000000
                            CHANNELS 3 Zrotation Xrotation Yrotation
                            End Site
                            {
                                OFFSET -26.556021 0.000000 0.000000
                            }
                        }
                    }
                }
            }
        }
    }
    JOINT LeftUpLeg
    {
        OFFSET 17.704014 0.000000 0.000000
        CHANNELS 3 Zrotation Xrotation Yrotation
        JOINT LeftLeg
        {
            OFFSET -0.000000 -81.181816 0.000000
            CHANNELS 3 Zrotation Xrotation Yrotation
            JOINT LeftFoot
            {
                OFFSET -0.000000 -62.821102 0.000000
                CHANNELS 3 Zrotation Xrotation Yrotation
                JOINT LeftToeBase
                {
                    OFFSET -0.000000 -11.507608 26.556021
                    CHANNELS 3 Zrotation Xrotation Yrotation
                    End Site
                    {
                        OFFSET -0.000000 0.000000 7.081605
                    }
                }
            }
        }
    }
    JOINT RightUpLeg
    {
        OFFSET -17.704014 0.000000 0.000000
        CHANNELS 3 Zrotation Xrotation Yrotation
        JOINT RightLeg
        {
            OFFSET -0.000000 -81.181816 0.000000
            CHANNELS 3 Zrotation Xrotation Yrotation
            JOINT RightFoot
            {
                OFFSET -0.000000 -62.821102 0.000000
                CHANNELS 3 Zrotation Xrotation Yrotation
                JOINT RightToeBase
                {
                    OFFSET -0.000000 -11.507608 26.556021
                    CHANNELS 3 Zrotation Xrotation Yrotation
                    End Site
                    {
                        OFFSET -0.000000 0.000000 7.081605
                    }
                }
            }
        }
    }
}
MOTION
Frames:    12
Frame Time:    0.008333
21.871449    102.141212    51.932442    9.777820    2.423629    -70.115379    -0.083637    8.578019    -0.899991    -1.226802    -5.622355    -0.366780    21.078466    6.449797    13.999705    -16.339619    -4.422816    9.714957    12.530606    3.010111    -15.058621    -9.844596    -8.119941    -20.488569    18.468977    -2.757473    -41.681709    -4.052207    5.978683    -44.211597    -9.554226    -4.258944    -5.679773    30.064983    -27.958693    41.857227    6.115725    -22.618204    103.456642    17.191839    -25.239143    31.591457    71.880814    -37.577015    42.635216    -114.841614    56.910675    65.174538    8.040925    -31.622187    44.761837    0.000000    0.000000    0.000000    -65.861496    -37.060841    -38.238468    128.578506    74.074394    -117.886871    20.300772    -32.933575    18.210497    0.000000    0.000000    0.000000    
21.887880    102.122879    51.937546    9.773391    2.404634    -70.122017    -0.088372    8.595188    -0.885793    -1.250451    -5.618208    -0.363096    21.061405    6.457860    13.975303    -16.286160    -4.435312    9.700457    12.553320    3.016189    -15.076279    -9.806948    -8.126459    -20.522280    18.487524    -2.733463    -41.636845    -3.904850    5.942958    -44.238579    -9.538235    -4.269069    -5.695219    30.056831    -27.945127    41.867203    6.102701    -22.641178    103.440582    17.207264    -25.241846    31.581793    71.876266    -37.571518    42.632877    -114.870483    56.889069    65.191971    8.051808    -31.613886    44.773792    0.000000    0.000000    0.000000    -65.884041    -37.073093    -38.236294    128.630081    74.068954    -117.948395    20.308071    -32.944118    18.208969    0.000000    0.000000    0.000000    
21.904072    102.100182    51.936424    9.768692    2.387545    -70.130745    -0.108167    8.618718    -0.873092    -1.244096    -5.633204    -0.359281    21.029808    6.466799    13.953274    -16.231932    -4.424413    9.693417    12.550270    3.010890    -15.098665    -9.765347    -8.133106    -20.535509    18.499872    -2.690363    -41.604050    -3.878840    5.975529    -44.275902    -9.547252    -4.258125    -5.689856    30.066000    -27.947445    41.873531    6.106602    -22.651867    103.437576    17.187187    -25.264891    31.560730    71.876572    -37.559429    42.626888    -114.889946    56.874645    65.179222    8.058901    -31.602253    44.781105    0.000000    0.000000    0.000000    -65.905487    -37.083553    -38.234440    128.668564    74.052719    -117.981941    20.312056    -32.968983    18.192774    0.000000    0.000000    0.000000    
21.917656    102.080681    51.933521    9.763590    2.369769    -70.131401    -0.117979    8.644358    -0.865488    -1.261317    -5.658989    -0.358182    21.029577    6.487784    13.930685    -16.207815    -4.413283    9.679734    12.564946    3.006963    -15.126949    -9.736823    -8.184945    -20.555920    18.478207    -2.593960    -41.575623    -3.806541    6.030302    -44.321552    -9.533598    -4.255787    -5.683872    30.059406    -27.921675    41.870354    6.103361    -22.685545    103.437042    17.197681    -25.290216    31.567987    71.870537    -37.559715    42.622227    -114.906143    56.869411    65.218376    8.068624    -31.549065    44.724197    0.000000    0.000000    0.000000    -65.918686    -37.080036    -38.234528    128.685638    74.044685    -118.050743    20.329664    -33.002838    18.229799    0.000000    0.000000    0.000000    
21.921543    102.060089    51.930504    9.737785    2.355569    -70.139854    -0.127497    8.673773    -0.854585    -1.260703    -5.668858    -0.354823    21.004507    6.495039    13.917303    -16.155016    -4.391768    9.681989    12.569128    3.005813    -15.151608    -9.703715    -8.197164    -20.571527    18.491138    -2.540550    -41.539719    -3.667121    6.029355    -44.431625    -9.524278    -4.250515    -5.684836    30.052597    -27.888702    41.892185    6.090560    -22.722267    103.423813    17.188629    -25.312738    31.563362    71.861725    -37.536140    42.582748    -114.926308    56.851913    65.200111    8.041440    -31.616150    44.753788    0.000000    0.000000    0.000000    -65.907661    -37.071899    -38.208504    128.707428    74.036461    -118.082405    20.328884    -33.043411    18.249161    0.000000    0.000000    0.000000    
21.931019    102.047028    51.927132    9.724569    2.342355    -70.142746    -0.142719    8.694208    -0.846506    -1.236120    -5.683921    -0.351634    20.967274    6.510127    13.903793    -16.129032    -4.374869    9.681291    12.547120    3.004344    -15.166939    -9.675353    -8.249995    -20.598637    18.474661    -2.449655    -41.497898    -3.632399    6.092641    -44.461124    -9.550560    -4.250560    -5.671063    30.064745    -27.869911    41.896564    6.082377    -22.734138    103.422073    17.198753    -25.310829    31.572388    71.847122    -37.530849    42.559532    -114.925713    56.842682    65.195122    8.056507    -31.618795    44.763988    0.000000    0.000000    0.000000    -65.904770    -37.063805    -38.200241    128.725052    74.044449    -118.141502    20.380835    -33.054234    18.319265    0.000000    0.000000    0.000000    
21.939272    102.031898    51.925053    9.704755    2.336584    -70.152748    -0.129630    8.715441    -0.837646    -1.250927    -5.700632    -0.349157    20.973047    6.534930    13.901070    -16.140139    -4.358317    9.683007    12.554279    3.000464    -15.183535    -9.660423    -8.306625    -20.623674    18.425884    -2.389186    -41.464920    -3.603952    6.117826    -44.506680    -9.549247    -4.235687    -5.667364    30.085058    -27.848228    41.932896    6.064265    -22.763111    103.406593    17.217678    -25.310936    31.575504    71.842804    -37.519947    42.545158    -114.953445    56.843258    65.227547    8.059763    -31.635567    44.761063    0.000000    0.000000    0.000000    -65.890366    -37.066719    -38.188267    128.756165    74.048874    -118.204674    20.403732    -33.071758    18.350025    0.000000    0.000000    0.000000    
21.952822    102.016464    51.927315    9.693554    2.329478    -70.157722    -0.119383    8.725969    -0.840380    -1.256088    -5.711008    -0.350149    20.956791    6.533788    13.903272    -16.122160    -4.316679    9.695628    12.553857    2.998698    -15.177051    -9.655980    -8.336714    -20.651628    18.401302    -2.366155    -41.442177    -3.596506    6.123469    -44.493160    -9.553497    -4.246390    -5.648780    30.094933    -27.822680    41.954041    6.060264    -22.770063    103.398674    17.182690    -25.322634    31.565981    71.836800    -37.518677    42.532063    -114.960297    56.832050    65.225304    8.125156    -31.576033    44.771236    0.000000    0.000000    0.000000    -65.898941    -37.061146    -38.164349    128.705582    74.029236    -118.149063    20.385273    -33.093369    18.364056    0.000000    0.000000    0.000000    
21.959717    102.006599    51.924229    9.680465    2.321991    -70.165466    -0.121450    8.727579    -0.839813    -1.245039    -5.714197    -0.349441    20.945465    6.539401    13.912990    -16.118557    -4.274489    9.714433    12.546150    2.994848    -15.177470    -9.656489    -8.347196    -20.672009    18.390787    -2.374613    -41.411900    -3.661983    6.130274    -44.445667    -9.565673    -4.239004    -5.627491    30.118668    -27.825937    41.980328    6.062327    -22.743567    103.387321    17.191957    -25.291378    31.590954    71.827629    -37.509716    42.522198    -114.973854    56.838161    65.222832    8.110332    -31.634420    44.802460    0.000000    0.000000    0.000000    -65.896164    -37.059372    -38.149448    128.695526    74.022049    -118.156067    20.385582    -33.107468    18.390993    0.000000    0.000000    0.000000    
21.964254    102.000786    51.922821    9.658414    2.309057    -70.178276    -0.120749    8.735142    -0.834933    -1.238730    -5.702809    -0.347526    20.932323    6.530826    13.920649    -16.123528    -4.239401    9.725986    12.537912    2.982854    -15.167850    -9.657643    -8.339987    -20.692335    18.387836    -2.405590    -41.382782    -3.670351    6.096454    -44.450306    -9.572317    -4.234827    -5.623497    30.127045    -27.790762    42.017956    6.053104    -22.778864    103.388985    17.207409    -25.311211    31.592440    71.805611    -37.486557    42.490692    -114.964073    56.834393    65.210258    8.139223    -31.600615    44.781216    0.000000    0.000000    0.000000    -65.892334    -37.057182    -38.134895    128.696289    74.007797    -118.180885    20.370186    -33.113892    18.408623    0.000000    0.000000    0.000000    
21.966074    101.994667    51.919056    9.627147    2.298968    -70.195869    -0.112010    8.755204    -0.829760    -1.240418    -5.707500    -0.345525    20.917536    6.528915    13.930412    -16.111641    -4.199132    9.744915    12.543745    2.985501    -15.168359    -9.674437    -8.371249    -20.693291    18.461813    -2.376543    -41.396408    -3.805170    6.207944    -44.362209    -9.574849    -4.245471    -5.597545    30.127714    -27.765100    42.024044    6.048375    -22.778625    103.389557    17.215734    -25.300531    31.611917    71.786865    -37.453121    42.470047    -114.979591    56.844093    65.243477    8.095394    -31.677956    44.772003    0.000000    0.000000    0.000000    -65.875587    -37.055477    -38.104397    128.689651    73.989967    -118.175766    20.337671    -33.129086    18.399136    0.000000    0.000000    0.000000    
21.970346    101.993874    51.922821    9.613737    2.278157    -70.214584    -0.110225    8.755084    -0.828342    -1.242121    -5.705760    -0.345185    20.911516    6.530875    13.951911    -16.127413    -4.162087    9.770696    12.527570    2.989208    -15.156220    -9.681140    -8.386633    -20.699465    18.460880    -2.386902    -41.397022    -3.820661    6.202813    -44.339081    -9.585719    -4.238946    -5.579448    30.155186    -27.754183    42.059708    6.061027    -22.761375    103.408287    17.217251    -25.299839    31.613857    71.759514    -37.427933    42.452408    -114.989494    56.848373    65.228668    8.111679    -31.676130    44.795338    0.000000    0.000000    0.000000    -65.888924    -37.059799    -38.178150    128.849915    74.036888    -118.384262    20.336414    -33.111267    18.424807    0.000000    0.000000    0.000000    
